<svg id="Capa_1" enable-background="new 0 0 512 512" height="512" viewBox="0 0 512 512" width="512" xmlns="http://www.w3.org/2000/svg"><g id="XMLID_1495_"><g id="XMLID_1996_"><g id="XMLID_438_"><path id="XMLID_1215_" d="m502 357.031h-10v-252.062c0-27.57-22.43-50-50-50h-372c-27.57 0-50 22.43-50 50v252.062h-10c-5.523 0-10 4.477-10 10v40c0 27.57 22.43 50 50 50h412c27.57 0 50-22.43 50-50v-40c0-5.523-4.478-10-10-10zm-462-252.062c0-16.542 13.458-30 30-30h372c16.542 0 30 13.458 30 30v252.062h-24v-248.062c0-5.523-4.478-10-10-10h-137c-5.522 0-10 4.477-10 10s4.478 10 10 10h127v238.062h-62.382c-2.142-45.243-31.806-83.397-72.584-98.059 12.502-10.556 20.464-26.329 20.464-43.935v-9.499c0-31.705-25.794-57.498-57.498-57.498s-57.498 25.793-57.498 57.498v9.499c0 17.605 7.961 33.379 20.464 43.935-40.778 14.662-70.442 52.817-72.584 98.059h-62.382v-238.062h127c5.523 0 10-4.477 10-10s-4.477-10-10-10h-137c-5.522 0-10 4.477-10 10v248.062h-24zm178.502 110.068v-9.499c0-20.676 16.821-37.498 37.498-37.498s37.498 16.822 37.498 37.498v9.499c0 20.676-16.821 37.498-37.498 37.498s-37.498-16.822-37.498-37.498zm37.498 93.503c5.522 0 10-4.477 10-10v-25.43c43.084 4.8 77.062 40.202 79.595 83.922h-179.19c2.532-43.72 36.511-79.121 79.595-83.922v25.43c0 5.522 4.477 10 10 10zm236 98.491c0 16.542-13.458 30-30 30h-412c-16.542 0-30-13.458-30-30v-30h472z"/><path id="XMLID_1368_" d="m295.54 397.031h-79.08c-5.523 0-10 4.477-10 10s4.477 10 10 10h79.08c5.522 0 10-4.477 10-10s-4.478-10-10-10z"/><path id="XMLID_1369_" d="m256 118.97c2.63 0 5.21-1.07 7.069-2.93 1.86-1.86 2.931-4.44 2.931-7.07s-1.07-5.21-2.931-7.07c-1.859-1.86-4.439-2.93-7.069-2.93s-5.21 1.07-7.07 2.93-2.93 4.44-2.93 7.07 1.069 5.21 2.93 7.07c1.86 1.86 4.44 2.93 7.07 2.93z"/></g></g></g></svg>