<?xml version="1.0" encoding="UTF-8"?>
<svg xmlns="http://www.w3.org/2000/svg" style="fill:#079DFF" viewBox="0 0 512 512" width="512" height="512"><g id="Out_line" data-name="Out line"><path d="M284.96631,123.5603A40.17116,40.17116,0,0,0,288,119.96411V120h8a23.99787,23.99787,0,0,0,8-46.62378V60a19.96233,19.96233,0,0,0-32-15.96216A19.87057,19.87057,0,0,0,260,40H228a20.02229,20.02229,0,0,0-20,20V73.37622A23.99787,23.99787,0,0,0,216,120h7.99365a40.46107,40.46107,0,0,0,3.0315,3.564A56.97741,56.97741,0,0,0,192,176h16a40.92735,40.92735,0,0,1,26.15918-38.06958,23.98637,23.98637,0,0,0,43.68091-.00024A40.92677,40.92677,0,0,1,304,176h16A56.97744,56.97744,0,0,0,284.96631,123.5603ZM296,104h-.8313A39.69152,39.69152,0,0,0,296,96V88a8,8,0,0,1,0,16ZM284,56a4.004,4.004,0,0,1,4,4V71.31445A12.02035,12.02035,0,0,1,280,60,4.004,4.004,0,0,1,284,56Zm-60,4a4.004,4.004,0,0,1,4-4h32a4.004,4.004,0,0,1,4,4,12.01312,12.01312,0,0,1-12,12H224Zm-8,44a8,8,0,0,1,0-16v8a40.42171,40.42171,0,0,0,.79785,8Zm48,19.71973V128a8,8,0,0,1-16,0v-4.28027a8.00226,8.00226,0,0,0-4.00684-6.93262A24.01385,24.01385,0,0,1,232,96V88h20a27.91194,27.91194,0,0,0,20-8.43066,28.13166,28.13166,0,0,0,8,5.72363V96a24.09843,24.09843,0,0,1-12.00488,20.79492A7.99811,7.99811,0,0,0,264,123.71973Z"/><rect x="224" y="160" width="16" height="16"/><rect x="272" y="160" width="16" height="16"/><path d="M448,232a23.99787,23.99787,0,0,0,8-46.62378V172a19.96233,19.96233,0,0,0-32-15.96216A19.87057,19.87057,0,0,0,412,152H380a20.02229,20.02229,0,0,0-20,20v13.37622A23.99787,23.99787,0,0,0,368,232h7.99365a40.46107,40.46107,0,0,0,3.0315,3.564A56.97741,56.97741,0,0,0,344,288h16a40.92735,40.92735,0,0,1,26.15918-38.06958,23.98637,23.98637,0,0,0,43.68091-.00024A40.92677,40.92677,0,0,1,456,288h16a56.97744,56.97744,0,0,0-35.03369-52.4397A40.17116,40.17116,0,0,0,440,231.96411V232Zm0-16h-.8313A39.69152,39.69152,0,0,0,448,208v-8a8,8,0,0,1,0,16Zm-12-48a4.004,4.004,0,0,1,4,4v11.31445A12.02035,12.02035,0,0,1,432,172,4.004,4.004,0,0,1,436,168Zm-60,4a4.004,4.004,0,0,1,4-4h32a4.004,4.004,0,0,1,4,4,12.01312,12.01312,0,0,1-12,12H376Zm-8,44a8,8,0,0,1,0-16v8a40.42171,40.42171,0,0,0,.79785,8Zm48,19.71973V240a8,8,0,0,1-16,0v-4.28027a8.00226,8.00226,0,0,0-4.00684-6.93262A24.01385,24.01385,0,0,1,384,208v-8h20a27.91194,27.91194,0,0,0,20-8.43066,28.13166,28.13166,0,0,0,8,5.72363V208a24.09843,24.09843,0,0,1-12.00488,20.79492A7.99811,7.99811,0,0,0,416,235.71973Z"/><rect x="376" y="272" width="16" height="16"/><rect x="424" y="272" width="16" height="16"/><path d="M464,128H352a31.95275,31.95275,0,0,0-8,1.0127V48a32.03667,32.03667,0,0,0-32-32H200a32.03667,32.03667,0,0,0-32,32v57.0127A31.95275,31.95275,0,0,0,160,104H48a32.03667,32.03667,0,0,0-32,32V256a32.03667,32.03667,0,0,0,32,32h56V424a31.80335,31.80335,0,0,0,4.72119,16.708A7.99686,7.99686,0,0,0,104,448v24a32.03667,32.03667,0,0,0,32,32H376a32.03667,32.03667,0,0,0,32-32V448a7.99686,7.99686,0,0,0-4.72119-7.292A31.80335,31.80335,0,0,0,408,424V312h56a32.03667,32.03667,0,0,0,32-32V160A32.03667,32.03667,0,0,0,464,128ZM272,408v8H240v-8H224v8H208.80542a40.98761,40.98761,0,0,1,25.35376-30.06958,23.98637,23.98637,0,0,0,43.68091-.00024A40.98748,40.98748,0,0,1,303.19458,416H288v-8Zm-55.20215-56H216a8,8,0,0,1,0-16v8A40.42171,40.42171,0,0,0,216.79785,352ZM224,320V308a4.004,4.004,0,0,1,4-4h32a4.004,4.004,0,0,1,4,4,12.01312,12.01312,0,0,1-12,12Zm8,16h20a27.91194,27.91194,0,0,0,20-8.43066,28.13166,28.13166,0,0,0,8,5.72363V344a24.09843,24.09843,0,0,1-12.00488,20.79492A7.99811,7.99811,0,0,0,264,371.71973V376a8,8,0,0,1-16,0v-4.28027a8.00226,8.00226,0,0,0-4.00684-6.93262A24.01385,24.01385,0,0,1,232,344Zm64,8v-8a8,8,0,0,1,0,16h-.8313A39.69152,39.69152,0,0,0,296,344Zm-8-24.68555A12.02035,12.02035,0,0,1,280,308a4,4,0,0,1,8,0ZM319.42285,416a57.04906,57.04906,0,0,0-34.45654-44.4397A40.17116,40.17116,0,0,0,288,367.96411V368h8a23.99787,23.99787,0,0,0,8-46.62378V308a19.96233,19.96233,0,0,0-32-15.96216A19.87057,19.87057,0,0,0,260,288H228a20.02229,20.02229,0,0,0-20,20v13.37622A23.99787,23.99787,0,0,0,216,368h7.99365a40.46107,40.46107,0,0,0,3.0315,3.564A57.04894,57.04894,0,0,0,192.57715,416H144V288h6.11133l30.31055,15.15527A7.99951,7.99951,0,0,0,192,296V272H320v48a8.00009,8.00009,0,0,0,11.57812,7.15527L361.88867,312H368V416ZM320,256H192v-8H320Zm0-24H192V198.97852A32.02489,32.02489,0,0,0,200,200h35.71875l13.625,20.4375a7.99959,7.99959,0,0,0,13.3125,0L276.28125,200H312a32.02489,32.02489,0,0,0,8-1.02148ZM200,32H312a16.01833,16.01833,0,0,1,16,16v90.86816A31.85872,31.85872,0,0,0,320,160v21.84424A15.96365,15.96365,0,0,1,312,184H272a7.99943,7.99943,0,0,0-6.65625,3.5625L256,201.57812l-9.34375-14.01562A7.99943,7.99943,0,0,0,240,184H200a15.96365,15.96365,0,0,1-8-2.15576V136a31.85872,31.85872,0,0,0-8-21.13184V48A16.01833,16.01833,0,0,1,200,32ZM32,256V136a16.01833,16.01833,0,0,1,16-16H160a16.01833,16.01833,0,0,1,16,16V283.05566l-20.42188-10.21093A7.99934,7.99934,0,0,0,152,272H48A16.01833,16.01833,0,0,1,32,256ZM392,472a16.01833,16.01833,0,0,1-16,16H136a16.01833,16.01833,0,0,1-16-16V456H224a24.0275,24.0275,0,0,0,24,24h16a24.0275,24.0275,0,0,0,24-24H392ZM272,456a8.00917,8.00917,0,0,1-8,8H248a8.00917,8.00917,0,0,1-8-8Zm120-32a16.01833,16.01833,0,0,1-16,16H136a16.01833,16.01833,0,0,1-16-16V288h8V424a8.00039,8.00039,0,0,0,8,8H376a8.00039,8.00039,0,0,0,8-8V312h8Zm88-144a16.01833,16.01833,0,0,1-16,16H360a7.99934,7.99934,0,0,0-3.57812.84473L336,307.05566V160a16.01833,16.01833,0,0,1,16-16H464a16.01833,16.01833,0,0,1,16,16Z"/><path d="M168,264a56.97725,56.97725,0,0,0-35.03418-52.4397A40.186,40.186,0,0,0,136,207.96338V208h8a23.99787,23.99787,0,0,0,8-46.62378V148a19.96233,19.96233,0,0,0-32-15.96216A19.87057,19.87057,0,0,0,108,128H76a20.02229,20.02229,0,0,0-20,20v13.37622A23.99787,23.99787,0,0,0,64,208h7.99341a40.49447,40.49447,0,0,0,3.031,3.56421A56.97767,56.97767,0,0,0,40,264H56a40.92715,40.92715,0,0,1,26.15967-38.06982,23.98637,23.98637,0,0,0,43.68091.00024A40.92685,40.92685,0,0,1,152,264Zm-24-72h-.83154A39.69165,39.69165,0,0,0,144,184v-8a8,8,0,0,1,0,16Zm-12-48a4.004,4.004,0,0,1,4,4v11.31445A12.02035,12.02035,0,0,1,128,148,4.004,4.004,0,0,1,132,144Zm-60,4a4.004,4.004,0,0,1,4-4h32a4.004,4.004,0,0,1,4,4,12.01312,12.01312,0,0,1-12,12H72Zm-8,44a8,8,0,0,1,0-16v8a40.42351,40.42351,0,0,0,.79785,8Zm48,19.71973V216a8,8,0,0,1-16,0v-4.28027a8.00226,8.00226,0,0,0-4.00684-6.93262A24.01385,24.01385,0,0,1,80,184v-8h20a27.91194,27.91194,0,0,0,20-8.43066,28.13166,28.13166,0,0,0,8,5.72363V184a24.09967,24.09967,0,0,1-12.00586,20.79492A8.00044,8.00044,0,0,0,112,211.71973Z"/><rect x="72" y="248" width="16" height="16"/><rect x="120" y="248" width="16" height="16"/></g></svg>
