<svg height="512" style="fill:#079DFF" viewBox="0 0 512 512" width="512" xmlns="http://www.w3.org/2000/svg"><g id="Outline"><path d="m208 120h21.754l-4 16h-9.754v16h80v-16h-9.754l-4-16h21.754a24.028 24.028 0 0 0 24-24v-56a24.028 24.028 0 0 0 -24-24h-96a24.028 24.028 0 0 0 -24 24v56a24.028 24.028 0 0 0 24 24zm61.754 16h-27.508l4-16h19.508zm-69.754-96a8.009 8.009 0 0 1 8-8h96a8.009 8.009 0 0 1 8 8v56a8.009 8.009 0 0 1 -8 8h-96a8.009 8.009 0 0 1 -8-8z"/><path d="m128 152v-16h-9.754l-4-16h21.754a24.028 24.028 0 0 0 24-24v-56a24.028 24.028 0 0 0 -24-24h-96a24.028 24.028 0 0 0 -24 24h16a8.009 8.009 0 0 1 8-8h96a8.009 8.009 0 0 1 8 8v56a8.009 8.009 0 0 1 -8 8h-96a8.009 8.009 0 0 1 -8-8v-40h-16v40a24.028 24.028 0 0 0 24 24h21.754l-4 16h-9.754v16zm-53.754-16 4-16h19.508l4 16z"/><path d="m496 72v-32a24.028 24.028 0 0 0 -24-24h-96a24.028 24.028 0 0 0 -24 24v56a24.028 24.028 0 0 0 24 24h21.754l-4 16h-9.754v16h80v-16h-9.754l-4-16h21.754a24.028 24.028 0 0 0 24-24v-8h-16v8a8.009 8.009 0 0 1 -8 8h-96a8.009 8.009 0 0 1 -8-8v-56a8.009 8.009 0 0 1 8-8h96a8.009 8.009 0 0 1 8 8v32zm-62.246 48 4 16h-27.508l4-16z"/><path d="m368 248h-224a32.036 32.036 0 0 0 -32 32v8h16v-8a16.019 16.019 0 0 1 16-16h224a16.019 16.019 0 0 1 16 16v112h-256v-88h-16v112a32.036 32.036 0 0 0 32 32h68.9l-10.667 32h-18.233v16h144v-16h-18.233l-10.667-32h68.9a32.036 32.036 0 0 0 32-32v-136a32.036 32.036 0 0 0 -32-32zm-75.1 232h-73.8l10.666-32h52.468zm75.1-48h-224a16.019 16.019 0 0 1 -16-16v-8h256v8a16.019 16.019 0 0 1 -16 16z"/><path d="m416 192h-152v-24h-16v24h-152v-24h-16v32a8 8 0 0 0 8 8h160v24h16v-24h160a8 8 0 0 0 8-8v-32h-16z"/><path d="m48 72h16v16h-16z"/><path d="m80 64h16v24h-16z"/><path d="m112 48h16v40h-16z"/><path d="m216 72h16v16h-16z"/><path d="m248 64h16v24h-16z"/><path d="m280 48h16v40h-16z"/><path d="m384 72h16v16h-16z"/><path d="m416 64h16v24h-16z"/><path d="m448 48h16v40h-16z"/><path d="m200 328h-32a8 8 0 0 0 -8 8v24h-16v16h224v-16h-16v-72a8 8 0 0 0 -8-8h-32a8 8 0 0 0 -8 8v72h-24v-48a8 8 0 0 0 -8-8h-32a8 8 0 0 0 -8 8v48h-24v-24a8 8 0 0 0 -8-8zm-24 32v-16h16v16zm144-64h16v64h-16zm-72 24h16v40h-16z"/></g></svg>