<?xml version="1.0" encoding="UTF-8"?>
<svg xmlns="http://www.w3.org/2000/svg" style="fill:#079DFF" viewBox="0 0 64 64" width="512" height="512"><g id="Doctor-Medical_care-Healthcare-VDOcall-Conference-Notebook" data-name="Doctor-Medical care-Healthcare-VDOcall-Conference-Notebook"><path d="M25,2H5A3.009,3.009,0,0,0,2,5V17a3.009,3.009,0,0,0,3,3h8.59l3.7,3.71A1.007,1.007,0,0,0,18,24a.838.838,0,0,0,.38-.08A.987.987,0,0,0,19,23V20h6a3.009,3.009,0,0,0,3-3V5A3.009,3.009,0,0,0,25,2Zm1,15a1,1,0,0,1-1,1H18a1,1,0,0,0-1,1v1.59l-2.29-2.3A1.033,1.033,0,0,0,14,18H5a1,1,0,0,1-1-1V5A1,1,0,0,1,5,4H25a1,1,0,0,1,1,1Z"/><path d="M52,2A10,10,0,1,0,62,12,10.016,10.016,0,0,0,52,2Zm0,18a8,8,0,1,1,8-8A8.011,8.011,0,0,1,52,20Z"/><path d="M38,56H26a1,1,0,0,0,0,2H38a1,1,0,0,0,0-2Z"/><path d="M30.986,14H39a1,1,0,0,0,0-2H30.986a1,1,0,0,0,0,2Z"/><path d="M61.07,58.05l-4.67-14a2.99,2.99,0,0,0-.93-1.35A3.029,3.029,0,0,0,56,41V25a1,1,0,0,0-2,0V41a1,1,0,0,1-1,1H11a1,1,0,0,1-1-1V23.02a1,1,0,1,0-2,0V41a3.029,3.029,0,0,0,.53,1.7,2.99,2.99,0,0,0-.93,1.35l-4.67,14A3,3,0,0,0,5.77,62H58.23a3,3,0,0,0,2.84-3.95Zm-2.03,1.53a.983.983,0,0,1-.81.42H5.77a.983.983,0,0,1-.81-.42.963.963,0,0,1-.13-.9l4.66-14a1,1,0,0,1,.95-.68H53.56a1,1,0,0,1,.95.68l4.66,14A.963.963,0,0,1,59.04,59.58Z"/><path d="M28,22a4,4,0,0,0,8,0V20a4,4,0,0,0-8,0Zm2-2a2,2,0,0,1,4,0v2a2,2,0,0,1-4,0Z"/><path d="M40.15,28.75A3.019,3.019,0,0,0,37.16,26H36.13a3.009,3.009,0,0,0-2.57,1.46L32,30.06l-1.56-2.6A3.009,3.009,0,0,0,27.87,26H26.84a3.019,3.019,0,0,0-2.99,2.75L23,38.92a1.013,1.013,0,0,0,.26.76A1.029,1.029,0,0,0,24,40H40a1.029,1.029,0,0,0,.74-.32,1.013,1.013,0,0,0,.26-.76ZM25.09,38l.75-9.08a1.01,1.01,0,0,1,1-.92h1.03a1.012,1.012,0,0,1,.86.49l2.41,4.02a1.037,1.037,0,0,0,1.72,0l2.41-4.02a1.012,1.012,0,0,1,.86-.49h1.03a1.01,1.01,0,0,1,1,.92L38.91,38Z"/><path d="M23.45,6.11a1,1,0,0,0-1.05.09L19.85,8.11A2.992,2.992,0,0,0,17,6H9A3.009,3.009,0,0,0,6,9v4a3.009,3.009,0,0,0,3,3h8a2.992,2.992,0,0,0,2.85-2.11L22.4,15.8a.99.99,0,0,0,1.05.09A.988.988,0,0,0,24,15V7A.988.988,0,0,0,23.45,6.11ZM18,13a1,1,0,0,1-1,1H9a1,1,0,0,1-1-1V9A1,1,0,0,1,9,8h8a1,1,0,0,1,1,1Zm4,0-2-1.5v-1L22,9Z"/><path d="M58,12a1,1,0,0,1-1,1H53v4a1,1,0,0,1-2,0V13H47a1,1,0,0,1,0-2h4V7a1,1,0,0,1,2,0v4h4A1,1,0,0,1,58,12Z"/></g></svg>
