<svg id="Layer_1" enable-background="new 0 0 512 512" height="512" viewBox="0 0 512 512" width="512" xmlns="http://www.w3.org/2000/svg"><g><path d="m503.516 11.554c-.369-3.718-3.418-6.597-7.152-6.754-1.147-.048-116.099-4.8-240.364-4.8-33.089 0-68.437.335-105.063.995-4.143.075-7.44 3.493-7.365 7.634.074 4.095 3.417 7.365 7.498 7.365.045 0 .092 0 .138-.001 36.536-.659 71.793-.993 104.792-.993 107.002 0 207.081 3.533 233.172 4.529 2.784 32.255 14.053 180.05 3.205 346.92-26.777.996-129.347 4.529-236.377 4.529-107.019 0-209.598-3.534-236.377-4.53-10.847-166.868.422-314.665 3.205-346.92 13.587-.521 47.22-1.731 91.142-2.762 4.142-.097 7.421-3.533 7.323-7.674-.097-4.141-3.552-7.409-7.676-7.322-57.606 1.353-97.584 3.014-97.981 3.03-3.733.157-6.782 3.036-7.151 6.754-.192 1.938-18.991 196.189-.006 405.14.34 3.744 3.4 6.657 7.157 6.815.19.008 19.359.806 49.998 1.738.078.002.155.003.232.003 4.037 0 7.37-3.209 7.494-7.272.126-4.14-3.129-7.599-7.27-7.725-20.062-.61-35.183-1.163-43.253-1.472-.796-9.132-1.521-18.232-2.179-27.285 29.164 1.073 130.108 4.481 235.341 4.481s206.178-3.408 235.341-4.481c-.658 9.053-1.382 18.152-2.179 27.284-26.104.997-126.161 4.529-233.161 4.529-47.827 0-99.447-.688-153.424-2.043-4.174-.116-7.584 3.169-7.688 7.309-.104 4.141 3.169 7.582 7.311 7.686 34.137.857 67.335 1.448 99.234 1.767-23.625 46.926-59.096 69.896-59.468 70.133-2.822 1.784-4.125 5.219-3.197 8.425.929 3.207 3.867 5.414 7.206 5.414h128.913c4.144 0 7.502-3.358 7.502-7.5s-3.358-7.5-7.502-7.5h-107.316c14.582-13.146 35.278-35.821 50.445-68.829 12.899.092 25.569.138 37.984.138 12.798 0 25.497-.05 37.983-.141 15.168 33.009 35.864 55.686 50.447 68.832h-34.312c-4.144 0-7.502 3.358-7.502 7.5s3.358 7.5 7.502 7.5h55.907c3.335 0 6.265-2.204 7.198-5.406.932-3.201-.365-6.637-3.179-8.427-.38-.242-35.854-23.214-59.479-70.143 101.421-1.026 184.823-4.474 185.799-4.515 3.758-.158 6.817-3.071 7.157-6.815 18.985-208.951.186-403.202-.005-405.14z"/><path d="m90.903 74.742c-8.785 13.582-7.733 28.458 2.885 40.813 1.002 1.166 2.338 1.996 3.828 2.377.18.046 1.081.271 2.532.541-.241 8.771 1.334 20.247 9.148 29.285 1.089 1.259 2.262 2.432 3.519 3.517-9.912 3.429-18.168 8.652-24.695 15.642-16.763 17.953-15.398 40.789-15.331 41.752.22 3.19 2.439 5.891 5.527 6.725 1.58.427 27.034 7.128 65.638 7.128 19.781 0 43.019-1.76 68.259-7.026 3.289-.686 5.721-3.475 5.952-6.827.066-.963 1.432-23.799-15.331-41.752-6.527-6.99-14.783-12.213-24.695-15.642 1.27-1.097 2.455-2.283 3.553-3.558 7.797-9.047 9.365-20.514 9.112-29.307 1.258-.242 2.037-.436 2.204-.479 1.49-.382 2.825-1.211 3.827-2.377 10.618-12.355 11.67-27.231 2.885-40.813-10.116-15.64-30.943-25.228-45.483-20.938-3.498 1.032-6.492 2.766-8.925 5.111-2.432-2.345-5.427-4.079-8.925-5.111-14.542-4.288-35.369 5.299-45.484 20.939zm100.829 102.271c8.007 8.492 10.453 18.794 11.179 25.033-54.814 10.26-99.533 3.283-114.93.16.669-6.143 3.038-16.414 11.104-25.053 9.774-10.467 25.381-15.774 46.389-15.774 20.913 0 36.476 5.26 46.258 15.634zm-33.25-108.824c1.117-.329 2.314-.483 3.567-.483 8.726 0 20.09 7.481 25.07 15.18 4.682 7.238 4.625 14.284-.156 20.975-5.239.892-18.099 2.229-26.246-4.129-5.163-4.029-7.782-10.977-7.782-20.651-.001-9.254 4.175-10.486 5.547-10.892zm-13.172 37.025c1.768 2.405 3.85 4.54 6.246 6.399 7.418 5.755 16.5 7.623 24.274 7.931.092 5.917-.963 13.11-5.507 18.383-4.833 5.608-13.193 8.452-24.848 8.452-11.639 0-19.993-2.836-24.828-8.429-4.566-5.282-5.618-12.508-5.525-18.42 7.7-.348 16.631-2.244 23.943-7.917 2.395-1.859 4.477-3.994 6.245-6.399zm-41.809-22.328c5.695-8.804 19.739-17.321 28.636-14.697 1.372.405 5.548 1.637 5.548 10.892 0 9.674-2.618 16.622-7.782 20.651-8.152 6.361-21.021 5.018-26.245 4.129-4.782-6.691-4.838-13.736-.157-20.975z"/><path d="m417.883 226.555c10.618-12.355 11.67-27.231 2.885-40.813-10.116-15.64-30.947-25.228-45.482-20.938-3.499 1.032-6.493 2.767-8.925 5.112-2.432-2.345-5.427-4.079-8.925-5.112-14.538-4.289-35.367 5.299-45.482 20.938-8.784 13.582-7.733 28.458 2.885 40.813 1.002 1.166 2.337 1.996 3.827 2.377.18.046 1.081.271 2.532.541-.241 8.771 1.334 20.246 9.148 29.285 1.089 1.259 2.262 2.432 3.519 3.518-9.913 3.43-18.169 8.652-24.696 15.642-16.763 17.953-15.397 40.789-15.331 41.752.22 3.19 2.439 5.891 5.527 6.725 1.142.309 26.691 7.085 65.771 7.084 2.777 0 5.629-.034 8.538-.107 4.143-.104 7.415-3.545 7.311-7.687-.104-4.077-3.44-7.311-7.496-7.311-.064 0-.129.001-.192.002-30.548.771-53.918-3.056-64.229-5.157.702-6.22 3.118-16.635 11.2-25.207 9.783-10.374 25.346-15.634 46.258-15.634s36.475 5.26 46.258 15.634c8.011 8.496 10.455 18.805 11.181 25.033-4.36.817-8.759 1.545-13.139 2.176-4.101.59-6.947 4.392-6.357 8.492s4.389 6.946 8.494 6.355c6.786-.976 13.615-2.178 20.299-3.572 3.289-.686 5.721-3.475 5.952-6.827.066-.963 1.432-23.799-15.331-41.752-6.527-6.99-14.783-12.213-24.695-15.642 1.27-1.097 2.454-2.283 3.553-3.558 7.797-9.047 9.365-20.514 9.112-29.307 1.258-.242 2.037-.436 2.204-.479 1.488-.381 2.824-1.21 3.826-2.376zm-93.173-11.693c-4.783-6.691-4.84-13.737-.158-20.976 5.695-8.804 19.744-17.321 28.636-14.697 1.372.405 5.548 1.637 5.548 10.892 0 9.674-2.618 16.622-7.782 20.651-8.152 6.362-21.019 5.019-26.244 4.13zm66.663 34.065c-4.833 5.608-13.192 8.452-24.847 8.452-11.639 0-19.994-2.836-24.829-8.43-4.566-5.282-5.618-12.508-5.525-18.419 7.7-.348 16.631-2.244 23.943-7.917 2.396-1.859 4.479-3.994 6.246-6.399 1.768 2.405 3.85 4.54 6.246 6.399 7.418 5.755 16.499 7.623 24.273 7.931.093 5.917-.962 13.11-5.507 18.383zm16.643-34.072c-5.224.877-18.098 2.202-26.211-4.093-5.189-4.026-7.82-10.984-7.82-20.681 0-9.255 4.176-10.487 5.548-10.892 1.116-.329 2.314-.483 3.566-.483 8.726 0 20.091 7.481 25.07 15.18 4.68 7.237 4.626 14.28-.153 20.969z"/><path d="m172.79 295.377c3.172-2.662 3.584-7.391.926-10.564-.108-.129-10.988-13.208-21.848-34.448-1.283-2.508-3.862-4.086-6.68-4.086s-5.397 1.578-6.68 4.086c-10.859 21.24-21.739 34.318-21.844 34.443-2.667 3.17-2.258 7.901.913 10.567 1.407 1.183 3.12 1.76 4.824 1.76 2.138 0 4.262-.909 5.745-2.673.273-.324 4.036-4.832 9.355-12.774 1.189 17.976 5.702 33.926 17.812 43.907 8.678 7.152 20.551 10.712 36.281 10.711 12.56 0 27.581-2.271 45.388-6.795 4.016-1.02 6.444-5.102 5.423-9.116-1.02-4.015-5.106-6.44-9.117-5.422-34.606 8.792-56.988 8.479-68.433-.953-7.289-6.007-11.23-16.11-12.345-32.873 5.509 8.278 9.437 12.983 9.716 13.315 2.668 3.168 7.393 3.575 10.564.915z"/><path d="m383.783 91.913c-3.172-2.666-7.903-2.257-10.57.913-.273.324-4.036 4.831-9.354 12.773-1.189-17.975-5.702-33.926-17.812-43.906-15.609-12.862-41.56-14.107-81.67-3.917-4.016 1.02-6.444 5.102-5.423 9.116 1.021 4.015 5.109 6.44 9.117 5.422 34.605-8.792 56.988-8.479 68.433.953 7.289 6.007 11.23 16.11 12.345 32.873-5.509-8.279-9.438-12.983-9.717-13.315-2.663-3.167-7.391-3.575-10.562-.915-3.172 2.662-3.585 7.391-.925 10.564.108.129 10.988 13.208 21.849 34.449 1.283 2.508 3.862 4.086 6.679 4.086s5.398-1.578 6.679-4.086c10.86-21.24 21.739-34.319 21.844-34.443 2.667-3.17 2.258-7.901-.913-10.567z"/></g></svg>