<?xml version="1.0"?>
<svg xmlns="http://www.w3.org/2000/svg" style="fill:#079DFF" width="512" height="512" viewBox="0 0 512 512"><g><path d="M496,352H480V136a48.051,48.051,0,0,0-48-48H80a48.051,48.051,0,0,0-48,48V352H16a8,8,0,0,0-8,8v32a32.036,32.036,0,0,0,32,32H472a32.036,32.036,0,0,0,32-32V360A8,8,0,0,0,496,352ZM48,136a32.036,32.036,0,0,1,32-32H432a32.036,32.036,0,0,1,32,32V352H448V288a32.041,32.041,0,0,0-31.15-31.99L384,249.44v-4.79A40.06,40.06,0,0,0,408,208V176a40.04,40.04,0,0,0-40-40H352a40.04,40.04,0,0,0-40,40v32a40.06,40.06,0,0,0,24,36.65v4.79l-32.85,6.57A32.041,32.041,0,0,0,272,288v64H48ZM408,304a8,8,0,0,0-8,8v40H320V312a8,8,0,0,0-16,0v40H288V288a16.021,16.021,0,0,1,16-16,7.537,7.537,0,0,0,1.57-.16l32.34-6.46a24,24,0,0,0,44.18,0l32.34,6.46A7.537,7.537,0,0,0,416,272a16.021,16.021,0,0,1,16,16v64H416V312A8,8,0,0,0,408,304ZM392,188.93V208a24.032,24.032,0,0,1-24,24H352a24.032,24.032,0,0,1-24-24v-8.19C341.89,199.27,370.86,197.16,392,188.93Zm-64-5.12V176a24.032,24.032,0,0,1,24-24h16a24.043,24.043,0,0,1,23.6,19.64C374.96,180.14,345.2,183.1,328,183.81ZM368,248v8a8,8,0,0,1-16,0v-8ZM284.9,368l-2.67,8H229.77l-2.67-8ZM488,392a16.021,16.021,0,0,1-16,16H40a16.021,16.021,0,0,1-16-16V368H210.23l6.18,18.53A8,8,0,0,0,224,392h64a8,8,0,0,0,7.59-5.47L301.77,368H488Z"/><path d="M144,376H64a8,8,0,0,0,0,16h80a8,8,0,0,0,0-16Z"/><path d="M176,376h-8a8,8,0,0,0,0,16h8a8,8,0,0,0,0-16Z"/><path d="M236.92,193.69a8,8,0,0,0-6.86-1.45L208,197.75V184a8,8,0,0,0-8-8H88a8,8,0,0,0-8,8v80a8,8,0,0,0,8,8H200a8,8,0,0,0,8-8V250.25l22.06,5.51A8,8,0,0,0,240,248V200A8,8,0,0,0,236.92,193.69ZM192,256H96V192h96Zm32-18.25-16-4v-19.5l16-4Z"/><path d="M112,144a24,24,0,1,0-24,24A24.027,24.027,0,0,0,112,144Zm-32,0a8,8,0,1,1,8,8A8.009,8.009,0,0,1,80,144Z"/></g></svg>
