<?xml version="1.0"?>
<svg xmlns="http://www.w3.org/2000/svg" width="512" height="512" viewBox="0 0 512 512"><g><path d="M496,408H472V368a32.041,32.041,0,0,0-31.15-31.99L408,329.44v-9.46A39.967,39.967,0,0,0,424,288V256a40.04,40.04,0,0,0-40-40H368a40.04,40.04,0,0,0-40,40v32a40.069,40.069,0,0,0,32,39.2v2.55l-25.05,6.27A32.035,32.035,0,0,0,304,368v40H222.94l-2.29-16H268a28.031,28.031,0,0,0,28-28V260a28.031,28.031,0,0,0-28-28H168V208H304a8,8,0,0,0,8-8V16a8,8,0,0,0-8-8H32a8,8,0,0,0-8,8V200a8,8,0,0,0,8,8H84.69l24,24H100a28.031,28.031,0,0,0-28,28V364a28.031,28.031,0,0,0,28,28h47.35l-2.29,16H16a8,8,0,0,0-8,8v32a8,8,0,0,0,8,8h8v40a8,8,0,0,0,8,8H480a8,8,0,0,0,8-8V456h8a8,8,0,0,0,8-8V416A8,8,0,0,0,496,408ZM344,256a24.032,24.032,0,0,1,24-24h16a24.043,24.043,0,0,1,23.6,19.64c-16.64,8.5-46.4,11.46-63.6,12.17Zm0,32v-8.19c13.89-.54,42.86-2.65,64-10.88V288a24.032,24.032,0,0,1-24,24H368A24.032,24.032,0,0,1,344,288Zm48,40v8a8,8,0,0,1-16,0v-8Zm-72,40a16.021,16.021,0,0,1,16-16,7.93,7.93,0,0,0,1.94-.24l24.12-6.03a24,24,0,0,0,44.03-.35l32.34,6.46A7.537,7.537,0,0,0,440,352a16.021,16.021,0,0,1,16,16v40H440V392a8,8,0,0,0-16,0v16H344V392a8,8,0,0,0-16,0v16h-8ZM93.66,194.34A8.008,8.008,0,0,0,88,192H40V24H296V192H160a8,8,0,0,0-8,8v52.69l-18.34-18.34c0-.01,0-.01-.01-.01ZM100,376a12.01,12.01,0,0,1-12-12V260a12.01,12.01,0,0,1,12-12h24.69l29.65,29.66A8,8,0,0,0,168,272V248H268a12.01,12.01,0,0,1,12,12V364a12.01,12.01,0,0,1-12,12H218.37l-2.45-17.13A8,8,0,0,0,208,352H160a8,8,0,0,0-7.92,6.87L149.63,376Zm106.78,32H161.22l5.72-40h34.12ZM472,488H40V456H472Zm16-48H24V424H488Z"/><path d="M184,336a24,24,0,1,0-24-24A24.027,24.027,0,0,0,184,336Zm0-32a8,8,0,1,1-8,8A8.009,8.009,0,0,1,184,304Z"/><path d="M136,144a7.99,7.99,0,0,0,3.578-.845l64-32a8,8,0,0,0,0-14.31l-64-32A8,8,0,0,0,128,72v64a8,8,0,0,0,8,8Zm8-59.056L182.111,104,144,123.056Z"/></g></svg>
