<?xml version="1.0" encoding="iso-8859-1"?>
<!-- Generator: Adobe Illustrator 19.0.0, SVG Export Plug-In . SVG Version: 6.00 Build 0)  -->
<svg version="1.1" id="Capa_1" xmlns="http://www.w3.org/2000/svg" xmlns:xlink="http://www.w3.org/1999/xlink" x="0px" y="0px"
	 viewBox="0 0 512.001 512.001" style="enable-background:new 0 0 512.001 512.001;" xml:space="preserve">
<g>
	<g>
		<g>
			<path d="M74.67,277.333h362.667c5.888,0,10.667-4.779,10.667-10.667v-256C448.003,4.778,443.224,0,437.336,0H74.67
				c-5.888,0-10.667,4.779-10.667,10.667v256C64.003,272.554,68.782,277.333,74.67,277.333z M151.107,255.979L151.107,255.979
				c4.138-12.075,15.125-21.739,29.504-25.003l42.048-9.557c3.84-0.875,6.87-3.776,7.914-7.574l4.992-18.197
				c1.088-3.99-0.214-8.278-3.37-10.944c-9.109-7.786-15.147-19.094-16.128-30.272c-0.47-5.526-6.315-8.661-11.84-8.661
				l-1.942-16.854c3.094,0,6.016-1.323,8.043-3.648s2.944-5.398,2.517-8.469c-0.896-6.422-2.304-18.026-2.304-21.718
				c0-10.56,0-21.482,35.349-21.802c2.026-0.021,4.01-0.618,5.717-1.728c11.606-7.552,24.854-7.552,31.21-7.552
				c12.544,0,21.206,3.2,25.728,9.493c4.458,6.166,2.901,7.68,1.493,9.046l-5.098,4.63c-2.091,1.878-3.35,4.522-3.499,7.318
				l-1.237,23.21c-0.128,2.923,0.682,4.906,2.667,7.018c1.984,2.134,4.522,2.496,7.445,2.518l-2.624,17.472
				c-5.526,0-10.154,4.224-10.624,9.75c-0.982,11.349-7.445,23.168-16.896,30.87c-3.264,2.667-4.672,7.018-3.542,11.094l4.8,17.43
				c1.045,3.776,4.074,6.698,7.914,7.573l42.048,9.557c14.379,3.264,25.366,12.928,29.504,25.024L151.107,255.979z M85.337,21.333
				H426.67v234.667h-43.797c-4.416-22.166-22.379-40.32-46.763-45.846l-35.818-8.149l-1.366-4.95
				c9.067-9.13,15.488-20.8,18.198-32.938c6.229-2.838,10.838-8.555,11.776-15.424l2.56-18.56
				c0.768-5.461-0.917-11.029-4.565-15.274c-1.43-1.643-3.094-3.051-4.928-4.16l0.576-10.688l2.112-1.92
				c4.95-4.779,14.997-17.984,1.237-37.078c-8.768-12.16-23.253-18.346-43.05-18.346c-7.339,0-24.022,0-40.15,9.344
				c-36.949,1.024-53.482,14.378-53.482,43.094c0,3.498,0.661,9.878,1.323,15.339c-2.005,1.152-3.797,2.602-5.333,4.352
				c-3.712,4.266-5.419,9.856-4.651,15.382l2.539,18.538c0.982,7.104,5.867,12.95,13.013,15.68
				c2.646,11.627,8.726,22.848,17.216,31.766l-1.622,5.867l-35.818,8.15c-24.362,5.525-42.326,23.658-46.742,45.824H85.337V21.333z"
				/>
			<path d="M471.552,449.515l0.003-0.002l-28.203-7.061l-0.917-3.648c7.296-8.214,12.501-18.56,14.763-29.333
				c5.206-2.838,8.96-8.064,9.728-14.294l2.091-16.682c0.682-5.376-0.96-10.773-4.523-14.848c-0.96-1.109-2.048-2.07-3.221-2.923
				l0.448-9.194l1.472-1.494c4.16-4.416,12.587-16.576,1.152-34.026c-5.184-7.914-15.808-17.344-37.056-17.344
				c-9.493,0-21.717,1.003-33.6,8.406c-30.614,1.13-44.906,13.824-44.906,39.808c0,2.837,0.555,8.576,1.066,13.504
				c-1.301,0.896-2.496,1.942-3.542,3.136c-3.605,4.096-5.29,9.536-4.608,14.933l2.091,16.704c0.789,6.464,4.8,11.84,10.73,14.614
				c2.219,10.282,7.125,20.203,13.952,28.182l-1.109,4.48l-28.224,7.062c-2.859,0.725-5.654,1.685-8.448,2.965
				c-2.773-1.258-5.59-2.24-8.448-2.965l-28.203-7.062l-0.917-3.648c7.296-8.214,12.501-18.56,14.762-29.333
				c5.206-2.837,8.96-8.064,9.728-14.294l2.091-16.682c0.682-5.376-0.96-10.773-4.523-14.848c-0.96-1.109-2.048-2.07-3.221-2.923
				l0.448-9.194l1.472-1.494c4.16-4.416,12.587-16.576,1.152-34.026c-5.184-7.914-15.808-17.344-37.056-17.344
				c-9.514,0-21.717,1.024-33.643,8.427c-30.613,1.13-44.906,13.824-44.906,39.808c0,2.838,0.555,8.576,1.067,13.504
				c-1.302,0.896-2.496,1.941-3.542,3.136c-3.606,4.096-5.291,9.536-4.608,14.933l2.09,16.704c0.789,6.464,4.8,11.84,10.731,14.613
				c2.219,10.283,7.125,20.203,13.952,28.182l-1.109,4.48l-28.224,7.062c-2.858,0.725-5.654,1.685-8.448,2.966
				c-2.773-1.259-5.589-2.24-8.448-2.966l-28.203-7.062l-0.917-3.648c7.296-8.214,12.502-18.56,14.763-29.333
				c5.206-2.837,8.96-8.064,9.728-14.293l2.09-16.682c0.682-5.376-0.96-10.773-4.522-14.848c-0.96-1.109-2.048-2.07-3.221-2.922
				l0.448-9.195l1.472-1.494c4.16-4.416,12.586-16.576,1.152-34.026c-5.184-7.914-15.808-17.344-37.056-17.344
				c-9.515,0-21.718,1.024-33.643,8.427c-30.614,1.13-44.906,13.824-44.906,39.808c0,2.838,0.555,8.576,1.066,13.504
				c-1.301,0.896-2.496,1.941-3.542,3.136c-3.605,4.096-5.29,9.536-4.608,14.933l2.091,16.704c0.789,6.464,4.8,11.84,10.73,14.613
				c2.219,10.283,7.125,20.203,13.952,28.182l-1.11,4.48l-28.202,7.062c-23.808,5.974-40.448,27.286-40.448,51.84
				c0,5.888,4.779,10.666,10.667,10.666l490.667-0.022c5.888,0,10.667-4.779,10.667-10.667
				C512,476.758,495.36,455.467,471.552,449.515z M23.154,490.641l-0.004,0.004c3.499-9.942,11.776-17.771,22.422-20.203
				l34.411-8.597c3.818-0.96,6.826-3.947,7.766-7.766l4.096-16.384c0.96-3.755-0.235-7.722-3.051-10.368
				c-7.274-6.826-12.096-16.832-12.885-26.773c-0.384-4.864-5.034-8.747-9.92-9.643l-1.536-12.394
				c2.41-0.406,4.608-1.622,6.25-3.478c2.026-2.304,2.966-5.354,2.581-8.405c-0.021-0.064-1.898-14.656-1.898-19.542
				c0-9.814,0-18.283,27.008-18.56c2.176-0.022,4.33-0.704,6.102-1.984c8.874-6.358,19.157-6.358,24.085-6.358
				c14.166,0,17.942,5.803,19.2,7.702c3.435,5.269,2.219,6.57,1.366,7.488l-4.16,4.16c-1.878,1.878-2.987,4.373-3.115,7.018
				l-1.024,20.885c-0.128,2.901-0.234,4.416,1.75,6.528s3.605,2.005,6.506,2.026l-1.834,14.784c-4.8,0.768-8.576,4.736-8.982,9.706
				c-0.81,10.091-5.974,20.565-13.504,27.307c-2.944,2.646-4.181,6.698-3.221,10.539l3.926,15.68
				c0.96,3.797,3.946,6.805,7.766,7.744l34.389,8.598c2.71,0.682,5.419,1.834,8.278,3.498c3.306,1.942,7.445,1.942,10.752,0
				c2.88-1.685,5.568-2.816,8.256-3.498l34.41-8.598c3.819-0.96,6.827-3.946,7.766-7.766l4.096-16.384
				c0.96-3.755-0.234-7.722-3.05-10.368c-7.275-6.827-12.096-16.832-12.885-26.773c-0.384-4.864-5.034-8.747-9.92-9.643
				l-1.536-12.395c2.41-0.405,4.608-1.621,6.25-3.477c2.026-2.304,2.966-5.354,2.581-8.406c-0.021-0.064-1.898-14.656-1.898-19.542
				c0-9.813,0-18.282,27.008-18.56c2.176-0.021,4.331-0.704,6.102-1.984c8.874-6.358,19.158-6.358,24.085-6.358
				c14.166,0,17.942,5.802,19.2,7.702c3.435,5.269,2.219,6.57,1.365,7.488l-4.16,4.16c-1.878,1.878-2.987,4.374-3.115,7.019
				l-1.024,20.885c-0.128,2.901-0.234,4.416,1.749,6.528c1.984,2.112,3.606,2.005,6.507,2.027l-1.835,14.784
				c-4.8,0.768-8.576,4.736-8.981,9.706c-0.811,10.091-5.974,20.565-13.504,27.307c-2.944,2.645-4.182,6.698-3.221,10.538
				l3.925,15.68c0.96,3.798,3.947,6.806,7.766,7.744l34.39,8.598c2.709,0.682,5.419,1.834,8.277,3.498
				c3.307,1.942,7.445,1.942,10.752,0c2.88-1.685,5.568-2.816,8.256-3.498l34.411-8.598c3.818-0.96,6.826-3.946,7.766-7.766
				l4.096-16.384c0.96-3.755-0.234-7.723-3.05-10.368c-7.275-6.826-12.096-16.832-12.886-26.773
				c-0.384-4.864-5.034-8.746-9.92-9.642l-1.536-12.395c2.411-0.405,4.608-1.621,6.251-3.477c2.026-2.304,2.965-5.354,2.581-8.406
				c-0.021-0.064-1.898-14.656-1.898-19.542c0-9.813,0-18.282,27.008-18.56c2.176-0.021,4.331-0.704,6.102-1.984
				c8.875-6.357,19.157-6.357,24.086-6.357c14.165,0,17.941,5.802,19.2,7.701c3.434,5.27,2.218,6.57,1.365,7.488l-4.16,4.16
				c-1.878,1.878-2.986,4.374-3.115,7.018l-1.024,20.885c-0.128,2.902-0.234,4.416,1.75,6.528s3.606,2.005,6.507,2.026
				l-1.835,14.784c-4.8,0.768-8.576,4.736-8.982,9.707c-0.81,10.09-5.974,20.565-13.504,27.306
				c-2.944,2.646-4.182,6.699-3.221,10.539l3.925,15.68c0.96,3.797,3.946,6.806,7.766,7.744l34.411,8.597
				c10.709,2.688,18.986,10.518,22.485,20.48L23.154,490.641z"/>
		</g>
	</g>
</g>
<g>
</g>
<g>
</g>
<g>
</g>
<g>
</g>
<g>
</g>
<g>
</g>
<g>
</g>
<g>
</g>
<g>
</g>
<g>
</g>
<g>
</g>
<g>
</g>
<g>
</g>
<g>
</g>
<g>
</g>
</svg>
