<?xml version="1.0"?>
<svg xmlns="http://www.w3.org/2000/svg" viewBox="0 0 64 64" width="512" height="512"><g id="video_conference-meeting-conversation-teamwork" data-name="video conference-meeting-conversation-teamwork"><path d="M61,2H3A1,1,0,0,0,2,3V31a1,1,0,0,0,1,1H61a1,1,0,0,0,1-1V3A1,1,0,0,0,61,2ZM45,30H19V26H45ZM28,16a1,1,0,0,1,1,1v3H23V17a1,1,0,0,1,1-1Zm-4-4a2,2,0,1,1,2,2A2.006,2.006,0,0,1,24,12ZM48,22v2H16V22Zm-8-6a1,1,0,0,1,1,1v3H35V17a1,1,0,0,1,1-1Zm-4-4a2,2,0,1,1,2,2A2.006,2.006,0,0,1,36,12ZM60,30H47V26h2a1,1,0,0,0,1-1V21a1,1,0,0,0-1-1V16a.988.988,0,0,0-.55-.89l-2-1-.9,1.78,1.45.73V20H43V17a3,3,0,0,0-1.73-2.71A3.952,3.952,0,0,0,42,12a4,4,0,0,0-8,0,3.952,3.952,0,0,0,.73,2.29A3,3,0,0,0,33,17v3H31V17a3,3,0,0,0-1.73-2.71A3.952,3.952,0,0,0,30,12a4,4,0,0,0-8,0,3.952,3.952,0,0,0,.73,2.29A3,3,0,0,0,21,17v3H17V16.62l1.45-.73-.9-1.78-2,1A.988.988,0,0,0,15,16v4a1,1,0,0,0-1,1v4a1,1,0,0,0,1,1h2v4H4V4H60Z"/><path d="M54,48H47V47a3,3,0,0,0-2.58-2.96,6,6,0,1,0-8.84,0A3,3,0,0,0,33,47v1H31V47a3,3,0,0,0-2.58-2.96,6,6,0,1,0-8.84,0A3,3,0,0,0,17,47v1H10a1,1,0,0,0-1,1V61a1,1,0,0,0,1,1H54a1,1,0,0,0,1-1V49A1,1,0,0,0,54,48ZM40,36a4,4,0,1,1-4,4A4,4,0,0,1,40,36ZM35,47a1,1,0,0,1,1-1h8a1,1,0,0,1,1,1v1H35ZM24,36a4,4,0,1,1-4,4A4,4,0,0,1,24,36ZM19,47a1,1,0,0,1,1-1h8a1,1,0,0,1,1,1v1H19ZM53,60H11V50H53Z"/><path d="M56,11h2V7a1,1,0,0,0-1-1H53V8h3Z"/><rect x="56" y="13" width="2" height="2"/></g></svg>
