<?xml version="1.0"?>
<svg xmlns="http://www.w3.org/2000/svg" viewBox="0 0 64 64" width="512" height="512"><g id="outline"><path d="M58,2H6A4,4,0,0,0,2,6.083V43a1,1,0,0,0,1,1H25.78l-1.766,8.835a2.543,2.543,0,0,0,.579,2.093A3.173,3.173,0,0,0,27,56H37a3.173,3.173,0,0,0,2.407-1.072A2.557,2.557,0,0,0,39.98,52.8L38.22,44H61a1,1,0,0,0,1-1V6.083A4,4,0,0,0,58,2ZM4,12H16V22H13.72L12.1,17.138a3,3,0,1,0-4.2,0L6.28,22H4Zm5.721,6h.558l1.333,4H8.388ZM9,15a1,1,0,1,1,1,1A1,1,0,0,1,9,15ZM4,24H16V36H14V33a1,1,0,0,0-.6-.916A3.959,3.959,0,0,0,14,30a4,4,0,0,0-8,0,3.959,3.959,0,0,0,.6,2.084A1,1,0,0,0,6,33v3H4Zm6,8a2,2,0,1,1,2-2A2,2,0,0,1,10,32Zm2,2v2H8V34ZM37.881,53.635A1.171,1.171,0,0,1,37,54H27a1.171,1.171,0,0,1-.881-.365.54.54,0,0,1-.139-.439L27.819,44h8.362l1.833,9.165A.551.551,0,0,1,37.881,53.635ZM60,42H4V38H60ZM19,18a2.966,2.966,0,0,0-1,.184V12h8.54A5.969,5.969,0,0,0,25,16v9H22V21A3,3,0,0,0,19,18Zm0,2a1,1,0,0,1,1,1v1H18V21A1,1,0,0,1,19,20Zm1,4v2a1,1,0,0,0,1,1h4v2H18V24Zm5,7v5H18V31ZM37,17v8H27V17Zm-9.873-2A4.006,4.006,0,0,1,31,12h6.78l-.6,3ZM33,27v3.586l-1,1-1-1V27Zm-4,0v4a1,1,0,0,0,.293.707l2,2a1,1,0,0,0,1.414,0l2-2A1,1,0,0,0,35,31V27h2v9H27V27Zm11-2H39V16.1l.82-4.1H46V36H43V28A3,3,0,0,0,40,25Zm0,2a.989.989,0,0,1,1,1v8H39V27Zm15,5a.919.919,0,0,1,1,1v3H52V33a.919.919,0,0,1,1-1Zm-2-3a1,1,0,1,1,1,1A1,1,0,0,1,53,29Zm7,7H58V33a2.91,2.91,0,0,0-1.385-2.56A2.958,2.958,0,0,0,57,29a3,3,0,0,0-6,0,2.96,2.96,0,0,0,.385,1.44A2.91,2.91,0,0,0,50,33v3H48V22H60ZM55.981,15.814c.006.062.019.122.019.186a1.992,1.992,0,0,1-2.824,1.818Zm-3.962.372C52.013,16.124,52,16.064,52,16a1.992,1.992,0,0,1,2.824-1.818ZM54,12a4,4,0,0,0-4,4,3.961,3.961,0,0,0,.276,1.431L48,19.057V12h9.879l-1.325.947A3.964,3.964,0,0,0,54,12Zm6,8H50.121l1.325-.947A3.964,3.964,0,0,0,54,20a4,4,0,0,0,4-4,3.961,3.961,0,0,0-.276-1.431L60,12.943Zm0-10H4V6.083A2.021,2.021,0,0,1,6,4H58a2.021,2.021,0,0,1,2,2.083Z"/><rect x="31" y="6" width="2" height="2"/><path d="M3,59H7a1,1,0,0,0,1-1V54h2v4.906A3.1,3.1,0,0,0,13.094,62h5.812A3.1,3.1,0,0,0,22,58.906V49a1,1,0,0,0-1-1H7a5.006,5.006,0,0,0-5,5v5A1,1,0,0,0,3,59Zm9-9h8v2.6a5.222,5.222,0,0,1-2.862.405,5.863,5.863,0,0,1-1.632-.491A5.115,5.115,0,0,0,12.939,52a6.35,6.35,0,0,0-.939.137Zm0,4.2a4.55,4.55,0,0,1,1.061-.2,3.156,3.156,0,0,1,1.663.361,7.785,7.785,0,0,0,2.138.631A6.973,6.973,0,0,0,20,54.733v4.173A1.1,1.1,0,0,1,18.906,60H13.094A1.1,1.1,0,0,1,12,58.906ZM4,53a3,3,0,0,1,3-3h3v2H7a1,1,0,0,0-1,1v4H4Z"/><path d="M61,56H60V55a3,3,0,0,0-3-3H47a3,3,0,0,0-3,3v1H43a1,1,0,0,0-1,1,5.006,5.006,0,0,0,5,5H57a5.006,5.006,0,0,0,5-5A1,1,0,0,0,61,56Zm-8-2h4a1,1,0,0,1,1,1v1H53Zm-7,1a1,1,0,0,1,1-1h4v2H46Zm11,5H47a3.006,3.006,0,0,1-2.829-2H59.829A3.006,3.006,0,0,1,57,60Z"/><rect x="29" y="19" width="2" height="2"/><rect x="33" y="19" width="2" height="2"/></g></svg>
