<svg id="Layer_1" viewBox="0 0 480 480" style="enable-background:new 0 0 480 480; fill:#C92519" xmlns="http://www.w3.org/2000/svg"><g><g><path d="m190.002 354.929c19.299 0 35-15.7 35-34.999s-15.701-35-35-35-35 15.701-35 35 15.701 34.999 35 34.999zm0-49.999c8.271 0 15 6.729 15 15s-6.729 14.999-15 14.999-15-6.729-15-14.999c0-8.271 6.729-15 15-15z"/><path d="m502.001 409.93h-28.673l8.595-68.76c.356-2.846-.528-5.708-2.426-7.858-.486-.551-1.028-1.039-1.611-1.463.71-.616 1.408-1.249 2.078-1.918 11.409-11.409 15.045-28.875 9.489-45.581-.995-2.992-3.342-5.339-6.333-6.334-7.989-2.657-16.144-3.189-23.734-1.798 1.704-4.522 2.615-9.319 2.615-14.229 0-16.135-9.779-31.057-25.521-38.941-2.819-1.412-6.139-1.412-8.957 0-15.742 7.886-25.521 22.807-25.521 38.941 0 4.911.911 9.708 2.616 14.23-7.591-1.391-15.746-.859-23.735 1.797-2.991.995-5.338 3.342-6.333 6.334-5.556 16.706-1.92 34.172 9.489 45.581.67.67 1.367 1.302 2.077 1.918-.583.425-1.125.913-1.612 1.464-1.898 2.15-2.782 5.013-2.426 7.858l8.595 68.76h-58.708c4.985-5.518 8.037-12.881 8.037-20.959v-138.083c0-17.071-13.614-30.959-30.349-30.959h-17.801c-8.851-21.539-24.622-40.043-44.475-52.301 6.195-10.164 9.768-22.094 9.768-34.842v-28.572c0-37.023-30.12-67.144-67.143-67.144s-67.143 30.12-67.143 67.144v28.572c0 12.749 3.573 24.678 9.768 34.842-19.855 12.259-35.623 30.759-44.475 52.301h-17.801c-16.734 0-30.349 13.888-30.349 30.959v138.082c0 8.078 3.052 15.441 8.037 20.959h-38.039c-5.523 0-10 4.478-10 10v45c0 5.522 4.477 10 10 10h492.001c5.523 0 10-4.478 10-10v-45c0-5.522-4.477-10-10-10zm-359.142-305.715c0-25.995 21.148-47.144 47.143-47.144s47.143 21.148 47.143 47.144v28.572c0 25.994-21.148 47.143-47.143 47.143s-47.143-21.148-47.143-47.143zm-82.858 146.674c0-6.043 4.643-10.959 10.349-10.959h74.648c5.523 0 10-4.478 10-10s-4.477-10-10-10h-34.802c8.022-15.269 20.422-28.173 35.468-36.784 11.837 10.434 27.355 16.783 44.337 16.783s32.501-6.35 44.338-16.784c15.044 8.609 27.445 21.518 35.467 36.785h-34.808c-5.523 0-10 4.478-10 10s4.477 10 10 10h74.654c5.707 0 10.349 4.916 10.349 10.959v138.082c0 6.043-4.643 10.959-10.349 10.959h-239.301c-5.707 0-10.349-4.916-10.349-10.959v-138.082zm411.7 44.878c1.147 7.718-.94 15.082-5.879 20.021-4.938 4.939-12.303 7.029-20.021 5.879-1.147-7.718.94-15.082 5.879-20.021 4.938-4.939 12.301-7.022 20.021-5.879zm-39.701-52.093c6.269 4.646 10 11.33 10 18.314s-3.731 13.667-10 18.313c-6.269-4.646-10-11.329-10-18.313s3.732-13.668 10-18.314zm-39.699 52.093c7.718-1.144 15.082.94 20.021 5.879 4.939 4.938 7.026 12.303 5.879 20.021-7.72 1.147-15.083-.94-20.021-5.879-4.939-4.939-7.027-12.303-5.879-20.021zm11.028 54.163h57.344l-7.5 60h-42.344zm88.672 105h-472.001v-25h472.001z"/><path d="m170.004 138.501c5.523 0 10-4.478 10-10s-4.477-10-10-10h-.007c-5.523 0-9.997 4.478-9.997 10s4.481 10 10.004 10z"/><path d="m210.006 138.501c5.523 0 10-4.478 10-10s-4.477-10-10-10h-.007c-5.523 0-9.997 4.478-9.997 10s4.481 10 10.004 10z"/><path d="m190.002 239.93c5.523 0 10-4.478 10-10s-4.477-10-10-10h-.007c-5.523 0-9.996 4.478-9.996 10s4.48 10 10.003 10z"/></g></g></svg>