<svg id="Layer_1" viewBox="0 0 480 480" style="enable-background:new 0 0 480 480;fill:#11BECC" xmlns="http://www.w3.org/2000/svg"><g><g><path d="m490.5 373.5h-15.023c1.928-3.756 3.023-8.007 3.023-12.512l-.008-259.989c0-15.163-12.337-27.499-27.5-27.499l-322.383.01c-4.143 0-7.5 3.358-7.5 7.5 0 4.143 3.358 7.5 7.5 7.5l322.383-.01c6.893 0 12.5 5.607 12.5 12.499l.008 259.989c0 6.893-5.607 12.5-12.499 12.5l-389.993.012c-6.893 0-12.5-5.607-12.5-12.499l-.008-259.989c0-6.893 5.607-12.5 12.499-12.5l34.494-.001c4.143 0 7.5-3.358 7.5-7.5 0-4.143-3.358-7.5-7.5-7.5l-34.494.001c-15.163 0-27.499 12.336-27.499 27.5l.008 259.989c0 4.5 1.093 8.746 3.017 12.499h-15.025c-11.855 0-21.5 9.645-21.5 21.5v22c0 11.855 9.645 21.5 21.5 21.5h138.412c4.143 0 7.5-3.357 7.5-7.5s-3.357-7.5-7.5-7.5h-138.412c-3.584 0-6.5-2.916-6.5-6.5v-22c0-3.584 2.916-6.5 6.5-6.5h184v5.27c0 10.328 8.402 18.73 18.73 18.73h63.539c10.328 0 18.73-8.402 18.73-18.73v-5.27h184c3.584 0 6.5 2.916 6.5 6.5v22c0 3.584-2.916 6.5-6.5 6.5h-298.076c-4.143 0-7.5 3.357-7.5 7.5s3.357 7.5 7.5 7.5h298.077c11.855 0 21.5-9.645 21.5-21.5v-22c0-11.855-9.645-21.5-21.5-21.5zm-199 20.27c0 2.057-1.674 3.73-3.73 3.73h-63.54c-2.057 0-3.73-1.674-3.73-3.73v-5.27h71z"/><path d="m263.5 238.5h169.997l.001 47.5c0 4.143 3.358 7.5 7.5 7.5 4.143 0 7.5-3.358 7.5-7.5l-.005-175c0-1.989-.79-3.897-2.197-5.304-1.406-1.406-3.313-2.196-5.303-2.196l-369.993.011c-4.143 0-7.5 3.358-7.5 7.5l.007 239.989c0 1.989.79 3.897 2.197 5.304 1.406 1.406 3.313 2.196 5.303 2.196l72.448-.002c.015 0 .03.002.045.002h40c.024 0 .047-.003.071-.003l143.804-.005c.054.001.107.008.161.008h40c.063 0 .124-.008.186-.009l73.278-.003c4.143 0 7.5-3.358 7.5-7.5l-.001-31.494c0-4.143-3.358-7.5-7.5-7.5-4.143 0-7.5 3.358-7.5 7.5l.001 23.994-58.464.002v-17.49c0-7.875-3.333-14.982-8.655-20 5.323-5.018 8.655-12.125 8.655-20 0-15.163-12.337-27.5-27.5-27.5s-27.5 12.337-27.5 27.5c0 7.875 3.333 14.982 8.655 20-5.323 5.018-8.655 12.125-8.655 20v17.492l-56.536.002zm71.536-32.957c0-6.893 5.607-12.5 12.5-12.5s12.5 5.607 12.5 12.5v17.5h-25zm0-40c0-6.893 5.607-12.5 12.5-12.5s12.5 5.607 12.5 12.5-5.607 12.5-12.5 12.5-12.5-5.607-12.5-12.5zm98.46 57.957h-58.46v-17.957c0-7.875-3.333-14.982-8.655-20 5.323-5.018 8.655-12.125 8.655-20 0-15.163-12.337-27.5-27.5-27.5s-27.5 12.337-27.5 27.5c0 7.875 3.333 14.982 8.655 20-5.323 5.018-8.655 12.125-8.655 20v17.957h-56.536v-104.995l169.993-.005zm-184.996-104.994v104.994h-57.5v-17.957c0-7.875-3.333-14.982-8.655-20 5.323-5.018 8.655-12.125 8.655-20 0-15.163-12.337-27.5-27.5-27.5s-27.5 12.337-27.5 27.5c0 7.875 3.333 14.982 8.655 20-5.323 5.018-8.655 12.125-8.655 20v17.957h-57.497l-.003-104.989zm-97.5 87.037c0-6.893 5.607-12.5 12.5-12.5s12.5 5.607 12.5 12.5v17.5h-25zm0-40c0-6.893 5.607-12.5 12.5-12.5s12.5 5.607 12.5 12.5-5.607 12.5-12.5 12.5-12.5-5.607-12.5-12.5zm-72.496 72.957h169.996v104.994l-57.5.002v-17.496c0-7.875-3.333-14.982-8.655-20 5.323-5.018 8.655-12.125 8.655-20 0-15.163-12.337-27.5-27.5-27.5s-27.5 12.337-27.5 27.5c0 7.875 3.333 14.982 8.655 20-5.323 5.018-8.655 12.125-8.655 20v17.498l-57.493.002zm72.496 104.998v-17.498c0-6.893 5.607-12.5 12.5-12.5s12.5 5.607 12.5 12.5v17.497zm0-57.498c0-6.893 5.607-12.5 12.5-12.5s12.5 5.607 12.5 12.5-5.607 12.5-12.5 12.5-12.5-5.607-12.5-12.5zm184.036 0c0-6.893 5.607-12.5 12.5-12.5s12.5 5.607 12.5 12.5-5.607 12.5-12.5 12.5-12.5-5.607-12.5-12.5zm0 40c0-6.893 5.607-12.5 12.5-12.5s12.5 5.607 12.5 12.5v17.491l-25 .001z"/></g></g></svg>